<svg version="1.1" id="Layer_1" xmlns="http://www.w3.org/2000/svg" xmlns:xlink="http://www.w3.org/1999/xlink" x="0px" y="0px"
	 viewBox="100 0 35 35" style="enable-background:new 0 0 259 35;" xml:space="preserve">
<g>
	<path d="M110.8,29.9L110.8,29.9c-1.4-0.3-2.3-1.5-2.3-3.2V1.5V1.4c0-0.1-0.1-0.2-0.2-0.3l0,0l0,0l0,0C108,1,107.6,1,107.4,1
		c-2.2,0-3.7,1.6-3.7,3.9v25.2c0,2.4,1.5,3.9,3.7,3.9s3.6-1.5,3.7-3.8l0,0C111,30,110.9,29.9,110.8,29.9z"/>
	<path d="M131.6,29.9C131.5,29.9,131.5,29.9,131.6,29.9c-0.2,0-0.5,0-0.6,0c-2.3,0.1-3.5-1.1-4.5-2.8L115.1,8.2l0,0
		C115,8.1,114.9,8,114.8,8c-0.2,0-0.3,0.1-0.3,0.3l0,0l0,0v10.5l7.2,12c1,1.6,2.3,3.1,5.1,3.1c2.6,0,4.4-1.3,5.1-3.7v-0.1
		C131.9,30,131.7,29.9,131.6,29.9z"/>
	<path d="M129.2,20.1c0.2,0,0.3-0.1,0.3-0.3l0,0l0,0V1.5V1.3c0-0.1-0.1-0.3-0.2-0.3l0,0c-0.3-0.1-0.6-0.1-0.9-0.1
		c-2.2,0-3.7,1.6-3.7,3.9v8l4.3,7.1C129,20,129.1,20.1,129.2,20.1z"/>
</g>
</svg>
